# xmcd
#
# Track frame offsets: 
#        150
#        15214
#        28486
#        42371
#        56893
#        84349
#        98023
#        111128
#        125346
#        138560
#        152271
#        165399
#        179398
#        193266
#        205781
#        220829
#        234033
#        248189
#
# Disc length: 3494 seconds
#
# Revision: 0
# Processed by: cddbd v1.5.2PL0 Copyright (c) Steve Scherf et al.
# Submitted via: ExactAudioCopy v0.95b4
#
DISCID=e80da412
DTITLE=Lead Belly - Lead Belly 1933-1946 - Disc 1
DYEAR=2003
DGENRE=R&B
TTITLE0=The Old Chisholm Trail - Western Cowboy
TTITLE1=Packing Trunk
TTITLE2=Roberta
TTITLE3=New Black Snake Moan
TTITLE4=Death Letter Blues I and II
TTITLE5=Fort Worth and Dallas Blues
TTITLE6=Yellow Jacket Blues
TTITLE7=T.B. Woman Blues
TTITLE8=My Baby Quit Me
TTITLE9=Red River Blues
TTITLE10=Baby, Don't You Love Me No More
TTITLE11=Blind Lemon Jefferson's Blues
TTITLE12=Matchbox Blues
TTITLE13=Bull Cow Blues
TTITLE14=Bourgeois Blues
TTITLE15=De Kalb Blues
TTITLE16=Read Cross Store Blues
TTITLE17=Leaving Blues
EXTD=
EXTT0=
EXTT1=
EXTT2=
EXTT3=
EXTT4=
EXTT5=
EXTT6=
EXTT7=
EXTT8=
EXTT9=
EXTT10=
EXTT11=
EXTT12=
EXTT13=
EXTT14=
EXTT15=
EXTT16=
EXTT17=
PLAYORDER=
